<mxfile host="app.diagrams.net" modified="2024-05-09T23:45:50.371Z" agent="Mozilla/5.0 (Windows NT 10.0; Win64; x64) AppleWebKit/537.36 (KHTML, like Gecko) Chrome/124.0.0.0 Safari/537.36" etag="4YfVkex3pT0yNCgidxnQ" version="24.3.1" type="device">
  <diagram name="Página-1" id="fuoFXnrc0dh7p0lWexv7">
    <mxGraphModel dx="880" dy="460" grid="1" gridSize="10" guides="1" tooltips="1" connect="1" arrows="1" fold="1" page="1" pageScale="1" pageWidth="827" pageHeight="1169" math="0" shadow="0">
      <root>
        <mxCell id="0" />
        <mxCell id="1" parent="0" />
        <mxCell id="m6s5uCbidvK_G0ZUOM2I-2" value="DESCONECTADO" style="rounded=1;whiteSpace=wrap;html=1;" vertex="1" parent="1">
          <mxGeometry x="130" y="30" width="120" height="60" as="geometry" />
        </mxCell>
        <mxCell id="m6s5uCbidvK_G0ZUOM2I-3" value="" style="endArrow=classic;html=1;rounded=0;strokeColor=#000000;exitX=0.5;exitY=1;exitDx=0;exitDy=0;entryX=0.5;entryY=0;entryDx=0;entryDy=0;" edge="1" parent="1" source="m6s5uCbidvK_G0ZUOM2I-2" target="m6s5uCbidvK_G0ZUOM2I-6">
          <mxGeometry width="50" height="50" relative="1" as="geometry">
            <mxPoint x="189.29" y="150" as="sourcePoint" />
            <mxPoint x="189.79" y="280" as="targetPoint" />
          </mxGeometry>
        </mxCell>
        <mxCell id="m6s5uCbidvK_G0ZUOM2I-5" value="Iniciando Reunião" style="edgeLabel;html=1;align=center;verticalAlign=middle;resizable=0;points=[];" vertex="1" connectable="0" parent="m6s5uCbidvK_G0ZUOM2I-3">
          <mxGeometry x="-0.32" y="1" relative="1" as="geometry">
            <mxPoint as="offset" />
          </mxGeometry>
        </mxCell>
        <mxCell id="m6s5uCbidvK_G0ZUOM2I-24" style="edgeStyle=orthogonalEdgeStyle;rounded=0;orthogonalLoop=1;jettySize=auto;html=1;entryX=0;entryY=0.5;entryDx=0;entryDy=0;" edge="1" parent="1" source="m6s5uCbidvK_G0ZUOM2I-4" target="m6s5uCbidvK_G0ZUOM2I-2">
          <mxGeometry relative="1" as="geometry" />
        </mxCell>
        <mxCell id="m6s5uCbidvK_G0ZUOM2I-4" value="" style="ellipse;whiteSpace=wrap;html=1;" vertex="1" parent="1">
          <mxGeometry x="40" y="45" width="30" height="30" as="geometry" />
        </mxCell>
        <mxCell id="m6s5uCbidvK_G0ZUOM2I-23" style="edgeStyle=orthogonalEdgeStyle;rounded=0;orthogonalLoop=1;jettySize=auto;html=1;entryX=1;entryY=0.5;entryDx=0;entryDy=0;exitX=1;exitY=0.5;exitDx=0;exitDy=0;" edge="1" parent="1" source="m6s5uCbidvK_G0ZUOM2I-6" target="m6s5uCbidvK_G0ZUOM2I-2">
          <mxGeometry relative="1" as="geometry" />
        </mxCell>
        <mxCell id="m6s5uCbidvK_G0ZUOM2I-25" value="Reunião Encerrada" style="edgeLabel;html=1;align=center;verticalAlign=middle;resizable=0;points=[];" vertex="1" connectable="0" parent="m6s5uCbidvK_G0ZUOM2I-23">
          <mxGeometry x="-0.0977" y="-3" relative="1" as="geometry">
            <mxPoint as="offset" />
          </mxGeometry>
        </mxCell>
        <mxCell id="m6s5uCbidvK_G0ZUOM2I-6" value="CONECTADO" style="rounded=1;whiteSpace=wrap;html=1;" vertex="1" parent="1">
          <mxGeometry x="130" y="300" width="120" height="60" as="geometry" />
        </mxCell>
      </root>
    </mxGraphModel>
  </diagram>
</mxfile>
